<svg width="22" height="18" viewBox="0 0 22 18" fill="none" xmlns="http://www.w3.org/2000/svg">
<path d="M8.82457 8.02051C8.82457 8.02051 10.893 7.82155 10.893 4.68843C10.893 1.55791 9.49013 0.0147056 7.34583 0.0147056L0 0V17.3005H7.51667C7.51667 17.3005 11.275 17.451 11.275 12.1103C11.275 12.1103 11.5511 8.02051 8.82457 8.02051ZM2.73333 2.59507H6.49167C6.49167 2.59507 7.7777 2.62189 7.7777 4.73255C7.7777 6.9202 6.49167 6.9202 6.49167 6.9202H2.73333V2.59507ZM6.83333 14.7054H2.73333V9.51527H6.83333C6.83333 9.51527 8.88333 9.54209 8.88333 12.1103C8.88333 14.6786 7.12853 14.7054 6.83333 14.7054ZM17.0833 4.32512C11.9495 4.32512 11.9583 10.8128 11.9583 10.8128C11.9583 10.8128 11.6167 17.3005 17.0833 17.3005C17.0833 17.3005 21.8667 17.3005 21.8667 12.1103H19.1333C19.1333 12.1103 19.1333 14.7054 17.0833 14.7054C17.0833 14.7054 15.0333 14.7054 15.0333 11.2453H21.8667C21.8667 9.51527 21.8667 4.32512 17.0833 4.32512ZM15.0333 9.51527C15.0333 9.51527 14.9882 6.9202 17.0833 6.9202C19.1777 6.9202 19.1333 9.51527 19.1333 9.51527H15.0333ZM14.35 1.73005H19.8167V3.4601H14.35V1.73005Z" fill="white"/>
</svg>
