<svg width="44" height="44" viewBox="0 0 44 44" fill="none" xmlns="http://www.w3.org/2000/svg">
<path d="M22.8845 7.07178C24.6794 5.77947 26.7614 5.13332 29.1127 5.13332C30.405 5.13332 31.8229 5.47435 33.3665 6.19229C34.9101 6.89229 36.1306 7.71793 37.028 8.6692C38.8767 10.9666 39.6485 13.641 39.3793 16.6922C39.0921 19.7435 38.087 22.1307 36.346 23.8179L22.723 37.4409C22.3819 37.7819 21.9512 37.9434 21.4486 37.9434C20.9461 37.9434 20.5332 37.7819 20.1922 37.4409C19.8512 37.0998 19.6897 36.687 19.6897 36.1845C19.6897 35.6819 19.8512 35.2511 20.1922 34.9101L28.4306 26.6717C28.8794 26.2768 28.8794 25.864 28.4306 25.4153C27.9819 24.9666 27.5691 24.9666 27.1742 25.4153L18.9358 33.6537C18.5948 33.9947 18.182 34.1563 17.6615 34.1563C17.1589 34.1563 16.7461 33.9947 16.4051 33.6537C16.064 33.3127 15.9025 32.8999 15.9025 32.3973C15.9025 31.8947 16.064 31.464 16.4051 31.123L24.6435 22.8845C25.1281 22.4358 25.1281 21.9871 24.6435 21.5384C24.2307 21.0897 23.8358 21.0897 23.3871 21.5384L15.1486 29.8665C14.8076 30.2076 14.3589 30.3691 13.8743 30.3691C13.3717 30.3691 12.941 30.2076 12.564 29.8665C12.2051 29.5255 12.0256 29.1127 12.0256 28.6101C12.0256 28.1076 12.223 27.6589 12.6179 27.264L20.8743 19.0076C21.323 18.5589 21.323 18.1461 20.8743 17.7512C20.4255 17.3563 19.9948 17.3563 19.5999 17.7512L11.2717 26.0255C10.8769 26.3845 10.4641 26.5819 10.0153 26.5819C9.51277 26.5819 9.08201 26.4025 8.75893 26.0255C8.41791 25.6666 8.23842 25.2358 8.23842 24.7332C8.23842 24.2307 8.41791 23.8179 8.75893 23.4768C14.2512 17.9487 17.6435 14.6102 18.9358 13.3717L25.3255 19.6897C26.0255 20.3538 26.8332 20.6948 27.8204 20.6948C29.0768 20.6948 30.064 20.1922 30.7999 19.1871C31.3024 18.4512 31.4819 17.6435 31.3383 16.7461C31.1947 15.8487 30.8178 15.0948 30.2076 14.4666L22.8845 7.07178ZM26.5819 18.4333L18.9358 10.7692L6.22817 23.4768C4.72049 21.9512 3.85895 19.6179 3.66152 16.441C3.46408 13.282 4.32562 10.5359 6.22817 8.23844C8.36406 6.1205 10.9128 5.04358 13.8743 5.04358C16.8538 5.04358 19.3845 6.1205 21.4486 8.23844L29.1127 15.9025C29.4537 16.2435 29.6152 16.6563 29.6152 17.1589C29.6152 17.6615 29.4537 18.0922 29.1127 18.4333C28.7717 18.7563 28.3588 18.9358 27.8204 18.9358C27.3358 18.9358 26.923 18.7563 26.5819 18.4333Z" fill="#FF8762"/>
</svg>
