<svg width="30" height="20" viewBox="0 0 30 20" fill="none" xmlns="http://www.w3.org/2000/svg">
<path d="M29.2857 17.1429V4.28571C29.2857 4.28571 16.2857 13.3571 15.0214 13.8279C13.7786 13.3786 0.714287 4.28571 0.714287 4.28571V17.1429C0.714287 18.9286 1.09286 19.2857 2.85714 19.2857H27.1429C28.9493 19.2857 29.2857 18.9721 29.2857 17.1429ZM29.265 1.765C29.265 0.464286 28.8857 0 27.1429 0H2.85714C1.06429 0 0.714287 0.557143 0.714287 1.85714L0.735715 2.05714C0.735715 2.05714 13.6421 10.9429 15.0214 11.4286C16.4786 10.8643 29.2857 1.85714 29.2857 1.85714L29.265 1.765Z" fill="white"/>
</svg>
