<svg width="20" height="20" viewBox="0 0 20 20" fill="none" xmlns="http://www.w3.org/2000/svg">
<path d="M14.1667 2.86634C14.1667 2.75774 14.1228 2.65359 14.0446 2.5768C13.9665 2.50001 13.8605 2.45687 13.75 2.45687H11.6667C10.6176 2.40551 9.5905 2.76429 8.80977 3.45481C8.02904 4.14533 7.55815 5.11146 7.5 6.14209V8.35323H5.41667C5.30616 8.35323 5.20018 8.39637 5.12204 8.47316C5.0439 8.54995 5 8.6541 5 8.7627V10.8919C5 11.0005 5.0439 11.1047 5.12204 11.1815C5.20018 11.2583 5.30616 11.3014 5.41667 11.3014H7.5V16.7883C7.5 16.8969 7.5439 17.001 7.62204 17.0778C7.70018 17.1546 7.80616 17.1978 7.91667 17.1978H10.4167C10.5272 17.1978 10.6332 17.1546 10.7113 17.0778C10.7894 17.001 10.8333 16.8969 10.8333 16.7883V11.3014H13.0167C13.1093 11.3027 13.1998 11.2736 13.2737 11.2188C13.3477 11.1639 13.4009 11.0863 13.425 10.9984L14.025 8.86916C14.0416 8.80866 14.0438 8.74522 14.0315 8.68374C14.0192 8.62226 13.9927 8.56437 13.9541 8.51453C13.9155 8.4647 13.8657 8.42424 13.8086 8.39627C13.7516 8.3683 13.6888 8.35358 13.625 8.35323H10.8333V6.14209C10.8541 5.93939 10.9509 5.75155 11.105 5.61526C11.2591 5.47898 11.4594 5.40403 11.6667 5.40505H13.75C13.8605 5.40505 13.9665 5.36191 14.0446 5.28512C14.1228 5.20833 14.1667 5.10418 14.1667 4.99558V2.86634Z" fill="white"/>
</svg>
