<svg width="20" height="20" viewBox="0 0 20 20" fill="none" xmlns="http://www.w3.org/2000/svg">
<path d="M6.73325 16.3788C7.96549 16.4193 9.1935 16.2167 10.3447 15.7828C11.4959 15.349 12.5469 14.6928 13.4357 13.853C14.3244 13.0132 15.0328 12.0069 15.5191 10.8934C16.0053 9.77999 16.2595 8.58207 16.2666 7.37045C16.8313 6.6837 17.2506 5.89295 17.4999 5.04466C17.5185 4.97764 17.517 4.90677 17.4956 4.84056C17.4742 4.77436 17.4337 4.71566 17.3791 4.67153C17.3245 4.6274 17.2581 4.59971 17.1879 4.59181C17.1176 4.58391 17.0466 4.59614 16.9832 4.62701C16.6878 4.76676 16.3552 4.8119 16.0323 4.75608C15.7094 4.70025 15.4124 4.54626 15.1832 4.31581C14.8907 4.00099 14.5368 3.74708 14.1426 3.56912C13.7484 3.39117 13.3218 3.29278 12.8882 3.2798C12.4546 3.26682 12.0227 3.3395 11.6182 3.49354C11.2137 3.64759 10.8447 3.87986 10.5332 4.17659C10.1067 4.5825 9.79435 5.08994 9.62642 5.64959C9.4585 6.20924 9.44075 6.80207 9.57491 7.37045C6.78325 7.53424 4.86658 6.23213 3.33325 4.44684C3.28718 4.39557 3.22692 4.3586 3.15983 4.34043C3.09274 4.32227 3.02172 4.32369 2.95543 4.34454C2.88915 4.36538 2.83048 4.40474 2.78658 4.45781C2.74269 4.51088 2.71547 4.57536 2.70825 4.64339C2.41614 6.23575 2.62685 7.87782 3.31209 9.34906C3.99733 10.8203 5.12428 12.0503 6.54158 12.8737C5.59128 13.9447 4.25675 14.6137 2.81658 14.7409C2.73942 14.7535 2.6682 14.7894 2.61287 14.8438C2.55755 14.8981 2.52089 14.9681 2.50803 15.0439C2.49517 15.1197 2.50676 15.1976 2.54117 15.2666C2.57557 15.3356 2.63108 15.3923 2.69991 15.4288C3.95285 16.0441 5.3326 16.3691 6.73325 16.3788Z" fill="white"/>
</svg>
