<svg width="20" height="20" viewBox="0 0 20 20" fill="none" xmlns="http://www.w3.org/2000/svg">
<path d="M15.8334 3.27576H4.16675C3.50371 3.27576 2.86782 3.5346 2.39898 3.99534C1.93014 4.45608 1.66675 5.08099 1.66675 5.73257V13.922C1.66675 14.5736 1.93014 15.1985 2.39898 15.6592C2.86782 16.1199 3.50371 16.3788 4.16675 16.3788H15.8334C16.4965 16.3788 17.1323 16.1199 17.6012 15.6592C18.07 15.1985 18.3334 14.5736 18.3334 13.922V5.73257C18.3334 5.08099 18.07 4.45608 17.6012 3.99534C17.1323 3.5346 16.4965 3.27576 15.8334 3.27576ZM15.8334 4.91363L10.4167 8.57429C10.2901 8.64617 10.1464 8.68401 10.0001 8.68401C9.8538 8.68401 9.7101 8.64617 9.58342 8.57429L4.16675 4.91363H15.8334Z" fill="white"/>
</svg>
