<svg width="15" height="15" viewBox="0 0 15 15" fill="none" xmlns="http://www.w3.org/2000/svg">
<path d="M12.0602 4.22215C12.0602 4.32945 12.039 4.4357 11.998 4.53482C11.9569 4.63396 11.8967 4.72403 11.8209 4.7999C11.745 4.87577 11.6549 4.93595 11.5557 4.97701C11.4566 5.01808 11.3504 5.03921 11.2431 5.03921C11.1358 5.03921 11.0296 5.01808 10.9304 4.97701C10.8313 4.93595 10.7412 4.87577 10.6653 4.7999C10.5895 4.72403 10.5293 4.63396 10.4883 4.53482C10.4471 4.4357 10.4261 4.32945 10.4261 4.22215C10.4261 4.00546 10.5121 3.79763 10.6653 3.64441C10.8186 3.49118 11.0264 3.40509 11.2431 3.40509C11.4598 3.40509 11.6676 3.49118 11.8209 3.64441C11.9741 3.79763 12.0602 4.00546 12.0602 4.22215ZM14.6543 7.91039V7.92098L14.6075 10.8822C14.5956 11.9501 14.1661 12.971 13.411 13.7262C12.6559 14.4815 11.6351 14.9112 10.5672 14.9233L7.59545 14.9692H7.58486L4.62368 14.9225C3.55575 14.9105 2.5349 14.481 1.77963 13.726C1.02435 12.9709 0.594658 11.9501 0.582503 10.8822L0.536621 7.91039V7.8998L0.583386 4.93862C0.595306 3.87068 1.02478 2.84984 1.77989 2.09457C2.535 1.33929 3.55575 0.909597 4.62368 0.897447L7.59545 0.851562H7.60604L10.5672 0.898329C11.6351 0.91025 12.656 1.33972 13.4112 2.09483C14.1665 2.84993 14.5962 3.87068 14.6084 4.93862L14.6543 7.91039ZM13.3396 7.91039L13.2937 4.95892C13.2854 4.23299 12.9933 3.53912 12.4801 3.02578C11.9667 2.51244 11.2728 2.2204 10.5469 2.21215L7.59545 2.16627L4.64398 2.21215C3.91805 2.2204 3.22418 2.51244 2.71084 3.02578C2.1975 3.53912 1.90546 4.23299 1.89721 4.95892L1.85133 7.91039L1.89721 10.8619C1.90546 11.5878 2.1975 12.2817 2.71084 12.795C3.22418 13.3084 3.91805 13.6003 4.64398 13.6086L7.59545 13.6545L10.5469 13.6086C11.2728 13.6003 11.9667 13.3084 12.4801 12.795C12.9933 12.2817 13.2854 11.5878 13.2937 10.8619L13.3396 7.91039ZM11.2202 7.91039C11.2202 8.87172 10.8383 9.79369 10.1585 10.4735C9.47876 11.1532 8.55678 11.5351 7.59545 11.5351C6.63412 11.5351 5.71215 11.1532 5.03239 10.4735C4.35262 9.79369 3.97074 8.87172 3.97074 7.91039C3.97074 6.94906 4.35262 6.02709 5.03239 5.34733C5.71215 4.66756 6.63412 4.28568 7.59545 4.28568C8.55678 4.28568 9.47876 4.66756 10.1585 5.34733C10.8383 6.02709 11.2202 6.94906 11.2202 7.91039ZM9.90547 7.91039C9.90547 7.29773 9.66211 6.71018 9.22888 6.27697C8.79565 5.84376 8.20809 5.60039 7.59545 5.60039C6.9828 5.60039 6.39524 5.84376 5.96203 6.27697C5.52882 6.71018 5.28545 7.29773 5.28545 7.91039C5.28545 8.52303 5.52882 9.11057 5.96203 9.54381C6.39524 9.97704 6.9828 10.2204 7.59545 10.2204C8.20809 10.2204 8.79565 9.97704 9.22888 9.54381C9.66211 9.11057 9.90547 8.52303 9.90547 7.91039Z" fill="white"/>
</svg>
