<svg width="20" height="20" viewBox="0 0 20 20" fill="none" xmlns="http://www.w3.org/2000/svg">
<g clip-path="url(#clip0_430_247)">
<path d="M6.77734 19.871C6.77734 19.7773 6.77734 19.6874 6.77734 19.5976C6.77734 15.3906 6.77734 11.1874 6.77734 6.98042C6.77734 6.86323 6.76952 6.76948 6.9414 6.76948C8.18359 6.77729 9.42968 6.77339 10.6719 6.77339C10.7031 6.77339 10.7344 6.7812 10.7851 6.78901C10.7851 7.33589 10.7851 7.87495 10.7851 8.41792C10.8008 8.42182 10.8125 8.42964 10.8281 8.43354C10.9844 8.23042 11.1328 8.01948 11.2969 7.82026C11.7734 7.23432 12.3711 6.80464 13.0742 6.54683C13.457 6.4062 13.875 6.32026 14.2773 6.30073C14.832 6.27729 15.3984 6.28511 15.9453 6.37886C16.8437 6.5312 17.6367 6.92964 18.293 7.58198C18.9141 8.19526 19.3242 8.93354 19.5469 9.76557C19.6641 10.207 19.7383 10.6601 19.8086 11.1093C19.8555 11.4218 19.8789 11.7421 19.8789 12.0546C19.8828 14.5937 19.8828 17.1328 19.8828 19.6718C19.8828 19.7343 19.8789 19.7968 19.875 19.8789C19.8008 19.8789 19.7383 19.8789 19.6758 19.8789C18.4766 19.8789 17.2812 19.8749 16.082 19.8828C15.8828 19.8828 15.8476 19.8164 15.8476 19.6367C15.8516 17.3007 15.8594 14.9609 15.8437 12.625C15.8398 12.2148 15.8008 11.789 15.6953 11.3945C15.5039 10.7031 15.0664 10.2031 14.3711 9.94917C13.7851 9.73432 13.1914 9.69526 12.5898 9.84761C11.9258 10.0156 11.4687 10.457 11.125 11.039C10.8594 11.4882 10.8086 11.9843 10.8047 12.4804C10.7891 14.8515 10.7969 17.2187 10.7969 19.5898C10.7969 19.6796 10.7969 19.7695 10.7969 19.8671C9.44921 19.871 8.12499 19.871 6.77734 19.871Z" fill="white"/>
<path d="M4.26172 13.3828C4.26172 15.4648 4.25781 17.5469 4.26562 19.6289C4.26562 19.8164 4.22656 19.8867 4.01953 19.8828C2.82812 19.8711 1.63672 19.8711 0.445312 19.8828C0.25 19.8828 0.207031 19.8164 0.207031 19.6367C0.210937 15.4531 0.210937 11.2656 0.207031 7.08203C0.207031 6.91406 0.253906 6.85547 0.425781 6.85547C1.62891 6.86328 2.83203 6.86328 4.03906 6.85547C4.22656 6.85547 4.26172 6.92578 4.26172 7.09375C4.26172 9.19141 4.26172 11.2891 4.26172 13.3828Z" fill="white"/>
<path d="M2.1914 0.187481C3.47656 0.156231 4.24609 1.08983 4.25 2.23436C4.2539 3.40623 3.43359 4.28123 2.14453 4.27733C0.945311 4.27733 0.0976544 3.41795 0.101561 2.20311C0.105467 1.06639 0.929686 0.148419 2.1914 0.187481Z" fill="white"/>
</g>
<defs>
<clipPath id="clip0_430_247">
<rect width="20" height="20" fill="white"/>
</clipPath>
</defs>
</svg>
