<svg width="35" height="35" viewBox="0 0 35 35" fill="none" xmlns="http://www.w3.org/2000/svg">
<g clip-path="url(#clip0_430_252)">
<path d="M29.9757 29.9473L29.9758 29.9471C30.668 29.255 30.668 28.1287 29.9758 27.4364C29.6406 27.1013 29.1946 26.9164 28.7203 26.9164C28.2463 26.9164 27.8003 27.1013 27.4649 27.4368C26.7729 28.1287 26.7729 29.255 27.4651 29.9471C28.1574 30.6392 29.2836 30.6392 29.9757 29.9473ZM28.0172 29.395C27.8294 29.2072 27.726 28.9575 27.726 28.6918C27.726 28.4262 27.8294 28.1763 28.0172 27.9885C28.2051 27.8008 28.4549 27.6973 28.7206 27.6973C28.9862 27.6973 29.2358 27.8008 29.4237 27.9885C29.8114 28.3763 29.8114 29.0072 29.4236 29.395C29.0358 29.7828 28.405 29.7827 28.0172 29.395Z" fill="white"/>
<path d="M33.0737 7.83095C33.0741 7.83045 33.0746 7.83012 33.075 7.82969C33.0759 7.82885 33.0767 7.82792 33.0775 7.82708L33.1845 7.72004L33.1818 7.71734C34.7731 6.00985 34.7381 3.32651 33.0748 1.66319C32.2512 0.839586 31.1563 0.385986 29.9916 0.385986C28.8788 0.385986 27.8302 0.800911 27.0206 1.55615L27.018 1.55355L26.9108 1.66063C26.91 1.66152 26.9091 1.66228 26.9082 1.66318C26.9078 1.66358 26.9075 1.66405 26.907 1.66452L1.29054 27.2809L1.30052 27.2909C1.15733 27.3832 1.05359 27.5349 1.02869 27.7169L0.186236 33.8703C0.160589 34.0579 0.224153 34.2465 0.35795 34.3804C0.472187 34.4945 0.62642 34.5575 0.785806 34.5575C0.813067 34.5575 0.840503 34.5556 0.867939 34.5519L7.02115 33.7092C7.20325 33.6844 7.35488 33.5806 7.44722 33.4374L7.45718 33.4474L33.0737 7.83095ZM29.9916 1.59625C30.833 1.59625 31.624 1.92393 32.2189 2.51893C33.3009 3.60078 33.4299 5.28043 32.6058 6.50471L28.2328 2.13186C28.7483 1.7835 29.3556 1.59625 29.9916 1.59625ZM27.018 3.26507L31.473 7.72002L7.45718 31.7358L5.78116 30.0599L25.0588 10.7825L23.9048 9.62863L4.62737 28.9062L3.0021 27.2809L27.018 3.26507ZM1.49341 33.2447L2.18719 28.1774L6.56053 32.5508L1.49341 33.2447Z" fill="white"/>
<path d="M9.85718 15.6427L10.9614 14.5384L2.12496 5.70189L5.73058 2.09617L7.44022 3.80596L6.19982 5.04619L7.17908 6.02539L8.41948 4.78524L9.41624 5.78192L8.17584 7.02225L9.15512 8.00135L10.3956 6.76121L11.3923 7.75806L9.55721 9.5927L10.5367 10.572L12.3716 8.73717L13.5869 9.95241L12.3465 11.193L13.3258 12.1721L14.5662 10.9317L14.567 10.9326L15.6712 9.82837L6.28261 0.439875C5.97768 0.134869 5.48341 0.134869 5.17848 0.439875L0.468645 5.14977C0.16362 5.45471 0.16362 5.94907 0.468645 6.254L9.85718 15.6427Z" fill="white"/>
<path d="M34.5906 28.7444C34.5765 28.7303 34.5618 28.7168 34.547 28.7039L24.7221 18.8792L21.7829 21.8184L22.7601 22.7956L24.5951 20.9607L32.9327 29.2981L29.3269 32.9037L20.0121 23.589L18.9079 24.6934L28.7747 34.5601C29.0797 34.8651 29.5739 34.8651 29.879 34.5601L34.5891 29.8504C34.5895 29.8497 34.59 29.8494 34.5906 29.8487C34.8956 29.5439 34.8956 29.0494 34.5906 28.7444Z" fill="white"/>
</g>
<defs>
<clipPath id="clip0_430_252">
<rect width="35" height="35" fill="white"/>
</clipPath>
</defs>
</svg>
